<!DOCTYPE svg PUBLIC "-//W3C//DTD SVG 1.1//EN" "http://www.w3.org/Graphics/SVG/1.1/DTD/svg11.dtd">
<!-- Uploaded to: SVG Repo, www.svgrepo.com, Transformed by: SVG Repo Mixer Tools -->
<svg fill="#000000" version="1.1" id="Layer_1" xmlns="http://www.w3.org/2000/svg" xmlns:xlink="http://www.w3.org/1999/xlink" viewBox="0 0 512 512" xml:space="preserve" width="800px" height="800px">
<g id="SVGRepo_bgCarrier" stroke-width="0"/>
<g id="SVGRepo_tracerCarrier" stroke-linecap="round" stroke-linejoin="round"/>
<g id="SVGRepo_iconCarrier"> <g> <g> <rect x="211.478" y="478.609" width="89.043" height="33.391"/> </g> </g> <g> <g> <rect x="144.696" y="445.217" width="66.783" height="33.391"/> </g> </g> <g> <g> <rect x="300.522" y="445.217" width="66.783" height="33.391"/> </g> </g> <g> <g> <rect x="434.087" y="311.652" width="33.391" height="66.783"/> </g> </g> <g> <g> <rect x="111.304" y="411.826" width="33.391" height="33.391"/> </g> </g> <g> <g> <rect x="367.304" y="411.826" width="33.391" height="33.391"/> </g> </g> <g> <g> <rect x="77.913" y="378.435" width="33.391" height="33.391"/> </g> </g> <g> <g> <rect x="400.696" y="378.435" width="33.391" height="33.391"/> </g> </g> <g> <g> <rect x="11.13" y="66.783" width="33.391" height="244.87"/> </g> </g> <g> <g> <rect x="467.478" y="66.783" width="33.391" height="244.87"/> </g> </g> <g> <g> <rect x="44.522" y="311.652" width="33.391" height="66.783"/> </g> </g> <g> <g> <rect x="77.913" width="356.174" height="33.391"/> </g> </g> <g> <g> <rect x="44.522" y="33.391" width="33.391" height="33.391"/> </g> </g> <g> <g> <rect x="434.087" y="33.391" width="33.391" height="33.391"/> </g> </g> <g> <g> <polygon points="333.913,122.435 333.913,155.826 300.522,155.826 300.522,189.217 267.13,189.217 267.13,222.609 233.739,222.609 233.739,256 189.217,256 189.217,222.609 122.435,222.609 122.435,289.391 155.826,289.391 155.826,322.783 189.217,322.783 189.217,356.174 233.739,356.174 233.739,322.783 267.13,322.783 267.13,289.391 300.522,289.391 300.522,256 333.913,256 333.913,222.609 367.304,222.609 367.304,189.217 400.696,189.217 400.696,122.435 "/> </g> </g> </g>
</svg>