<?xml version="1.0" encoding="iso-8859-1"?>
<!-- Uploaded to: SVG Repo, www.svgrepo.com, Generator: SVG Repo Mixer Tools -->
<svg fill="#000000" height="800px" width="800px" version="1.1" id="Layer_1" xmlns="http://www.w3.org/2000/svg" xmlns:xlink="http://www.w3.org/1999/xlink" 
	 viewBox="0 0 512 512" xml:space="preserve">
<g>
	<g>
		<path d="M489.739,244.87h-89.043c0-12.294-9.967-22.261-22.261-22.261h-66.783c-12.294,0-22.261,9.967-22.261,22.261v0.004
			h-13.089c-5.069,0-9.172-4.102-9.172-9.172v-13.094c12.294,0,22.261-9.967,22.261-22.261v-66.783
			c0-12.294-9.967-22.261-22.261-22.261V22.261C267.13,9.967,257.164,0,244.87,0H44.522C32.227,0,22.261,9.967,22.261,22.261v89.043
			C9.967,111.304,0,121.271,0,133.565v66.783c0,12.294,9.967,22.261,22.261,22.261v52.05c0,118.79,96.294,215.085,215.085,215.085
			h52.046c0.002,12.292,9.968,22.256,22.261,22.256h66.783c12.294,0,22.261-9.967,22.261-22.261h89.043
			c12.294,0,22.261-9.967,22.261-22.261V267.13C512,254.836,502.033,244.87,489.739,244.87z M44.522,155.826H244.87v22.261H44.522
			V155.826z M66.783,44.522h155.826v66.783H66.783V44.522z M66.783,274.659v-52.046h155.826v13.089
			c0,29.658,24.035,53.693,53.693,53.693h13.089v155.826h-52.046C143.144,445.222,66.783,368.861,66.783,274.659z M333.913,467.478
			V267.13h22.261v200.348H333.913z M467.478,445.217h-66.783V289.391h66.783V445.217z"/>
	</g>
</g>
</svg>